<svg xmlns="http://www.w3.org/2000/svg" xmlns:xlink="http://www.w3.org/1999/xlink" width="910" zoomAndPan="magnify" viewBox="0 0 682.5 614.249986" height="819" preserveAspectRatio="xMidYMid meet" version="1.0"><path fill="#000000" d="M 409.929688 486.261719 C 412.101562 485.847656 412.445312 487.261719 414.621094 486.84375 C 415.488281 484.589844 415.523438 481.5 416.378906 479.230469 C 414.5 478.375 412.917969 477.226562 409.929688 477.476562 C 409.929688 480.40625 409.929688 483.332031 409.929688 486.261719 Z M 438.667969 474.546875 C 440.324219 475.03125 440.1875 473.722656 441.597656 473.964844 C 442.582031 472.988281 442.066406 470.523438 442.1875 468.691406 C 440.738281 468.769531 439.359375 468.78125 438.667969 468.105469 C 438.667969 470.253906 438.667969 472.398438 438.667969 474.546875 Z M 330.75 473.964844 C 323.019531 473.550781 313.285156 474.511719 308.464844 472.203125 C 304.960938 470.527344 304.261719 465.519531 301.425781 465.761719 C 281.847656 475.101562 262.046875 484.222656 239.84375 490.945312 C 292.203125 491.292969 343.71875 494.753906 394.09375 497.972656 C 397.710938 498.203125 400.078125 499.886719 403.476562 497.972656 C 405.316406 490.246094 404.023438 479.390625 405.234375 471.035156 C 391.34375 469.484375 374.582031 470.796875 361.25 468.691406 C 357.210938 478.410156 344.265625 474.683594 330.75 473.964844 Z M 382.949219 458.148438 C 383.132812 460.28125 382.855469 461.957031 382.363281 463.421875 C 391.800781 464.734375 403.929688 463.359375 410.515625 467.519531 C 410.695312 469.652344 410.421875 471.328125 409.929688 472.789062 C 413.476562 472 416.464844 474.164062 418.140625 473.375 C 417.695312 466.292969 420.355469 462.316406 422.246094 457.5625 C 408.3125 456.875 397.117188 457.996094 382.949219 458.148438 Z M 422.832031 493.875 C 423.234375 498.175781 424.234375 503.375 426.9375 503.828125 C 432.261719 504.726562 432.460938 495.851562 432.804688 490.945312 C 433.722656 477.617188 434.226562 465.949219 433.972656 452.292969 C 433.941406 451.933594 433.886719 451.597656 433.386719 451.707031 C 425.136719 459.941406 421.265625 477.058594 422.832031 493.875 Z M 448.636719 464.003906 C 448.453125 466.015625 449.464844 468.605469 449.222656 471.035156 C 448.648438 476.785156 445.320312 480.882812 446.292969 485.089844 C 447.167969 488.898438 451.535156 492.007812 453.914062 493.875 C 456.574219 480.519531 457.628906 462.449219 457.4375 448.191406 C 455.054688 451.078125 449.351562 456.296875 448.636719 464.003906 Z M 252.164062 445.265625 C 250.183594 449.550781 251.800781 452.835938 248.058594 455.21875 C 242.554688 458.726562 230.09375 455.460938 225.183594 456.390625 C 225.785156 465.265625 227.230469 474.042969 226.355469 482.746094 C 233.867188 487.375 243.347656 484.578125 252.164062 480.988281 C 268.699219 474.253906 285.792969 466.539062 300.253906 460.492188 C 299.34375 456.519531 297.53125 453.449219 296.152344 449.949219 C 286.40625 450.761719 278.472656 453.382812 269.171875 454.632812 C 266.621094 453.078125 265.09375 450.507812 265.066406 446.4375 C 260.152344 446.65625 256.867188 445.25 252.164062 445.265625 Z M 332.511719 451.707031 C 331.589844 454.222656 329.453125 456.671875 327.234375 458.734375 C 323.746094 461.976562 317.839844 464.402344 318.433594 467.519531 C 329.742188 468.527344 341.835938 468.75 354.210938 468.691406 C 354.835938 464.457031 355.710938 460.453125 354.210938 456.980469 C 352.675781 455.585938 349.09375 456.234375 347.171875 455.21875 C 346.523438 450.710938 348.207031 447.503906 346 444.679688 C 340.210938 445.730469 339.761719 453.910156 332.511719 451.707031 Z M 333.683594 415.980469 C 332.183594 421.289062 328.015625 427.683594 327.820312 431.207031 C 327.539062 436.253906 332.054688 441.386719 334.273438 445.265625 C 337.917969 442.070312 341.820312 439.136719 348.347656 438.824219 C 351.511719 441.125 352.199219 445.90625 353.039062 450.535156 C 355.308594 450.847656 355.902344 449.488281 358.316406 449.949219 C 361.1875 452.351562 361.515625 457.300781 361.25 462.832031 C 366.863281 463.171875 371.402344 462.429688 376.496094 462.246094 C 377.28125 459.707031 377.488281 456.597656 377.671875 453.464844 C 373.835938 453.78125 370.992188 453.101562 367.699219 452.878906 C 369.566406 447.800781 363.613281 445.914062 365.941406 444.09375 C 360.828125 443.824219 357.839844 444.121094 354.800781 444.09375 C 350.652344 436.835938 350.011719 427.757812 347.757812 418.324219 C 345.726562 409.796875 341.125 399.222656 343.070312 390.210938 C 344.054688 385.636719 349.933594 381.871094 350.105469 375.570312 C 350.21875 371.589844 349.074219 368.4375 346.589844 364.445312 C 343.277344 379.964844 338.210938 399.976562 333.683594 415.980469 Z M 306.121094 373.230469 C 310.238281 363.296875 305.386719 347.183594 298.496094 344.53125 C 288.660156 340.746094 274.421875 345.53125 268.585938 352.144531 C 262.535156 359 261.511719 372.769531 265.066406 380.84375 C 268.078125 387.6875 277.398438 391.738281 285.007812 394.3125 C 286.589844 395.960938 283.964844 396.714844 284.417969 398.996094 C 294.335938 419.546875 299.347656 445 309.050781 465.761719 C 315.886719 460.480469 323.28125 455.765625 328.40625 448.777344 C 319.820312 428.269531 311.472656 407.511719 304.945312 384.941406 C 304.636719 382.515625 301.234375 383.183594 301.425781 380.253906 C 301.839844 377.386719 304.976562 375.984375 306.121094 373.230469 Z M 259.785156 311.734375 C 252.003906 329.644531 240.46875 344.9375 229.875 366.785156 C 225.808594 375.175781 221.660156 384.636719 216.972656 394.898438 C 212.898438 403.820312 205.730469 417.191406 207.003906 426.523438 C 208.503906 437.515625 220.710938 439.898438 224.597656 449.363281 C 230.710938 449.835938 238.132812 451.667969 244.535156 449.949219 C 243.753906 436.761719 258.214844 439.109375 268.585938 441.164062 C 270.789062 442.476562 269.863281 446.914062 272.101562 448.191406 C 279.375 446.667969 286.238281 444.738281 294.390625 444.09375 C 288.835938 429.144531 284.933594 412.539062 278.554688 398.414062 C 238.726562 388.519531 262.007812 322.867188 303.773438 339.847656 C 313.457031 346.773438 315.910156 368.3125 309.050781 380.253906 C 314.605469 394.425781 317.976562 410.777344 325.476562 423.011719 C 330.417969 403.742188 337.878906 383.414062 341.894531 363.859375 C 343.339844 356.828125 342.28125 348.933594 346.589844 342.773438 C 350.710938 341.574219 356.605469 343.773438 360.660156 341.601562 C 360.664062 336.71875 357.4375 335.0625 356.558594 331.058594 C 318.535156 330.375 290.894531 319.324219 259.785156 311.734375 Z M 470.925781 286.550781 C 474.007812 285.535156 476.546875 283.96875 479.71875 283.039062 C 479.8125 269.796875 483.164062 258.914062 483.238281 247.316406 C 480.761719 245.496094 478.78125 243.179688 475.617188 242.042969 C 474.433594 257.265625 472.242188 271.472656 470.925781 286.550781 Z M 197.03125 239.113281 C 204.507812 233.695312 208.960938 222.132812 207.003906 209.246094 C 203.183594 218.703125 199.519531 228.320312 197.03125 239.113281 Z M 211.109375 208.660156 C 213.125 223.558594 206.800781 235.203125 199.378906 242.628906 C 203.390625 245.257812 205.355469 249.933594 210.519531 251.414062 C 216.609375 247.679688 221.816406 236.949219 222.839844 226.816406 C 223.648438 218.773438 222.625 209.433594 218.734375 205.730469 C 216.539062 207.058594 212.625 206.664062 211.109375 208.660156 Z M 222.839844 202.21875 C 228.171875 217.757812 227.96875 234.246094 220.492188 246.726562 C 218.125 250.679688 212.539062 252.382812 209.9375 256.6875 C 206.769531 261.921875 207.386719 266.835938 205.246094 272.496094 C 220.039062 282.710938 236.65625 296.085938 254.507812 304.121094 C 269.125 310.703125 288.324219 314.714844 307.292969 319.347656 C 355.820312 331.203125 415.476562 328.800781 462.710938 315.25 C 467.765625 268.367188 474.335938 223.003906 476.789062 173.519531 C 458.695312 177.035156 436.035156 175.40625 414.03125 176.449219 C 377.402344 178.1875 348.042969 173.335938 319.023438 168.25 C 287.59375 162.742188 257.460938 156.636719 236.914062 142.480469 C 232.859375 163.03125 228.042969 182.816406 222.839844 202.21875 Z M 238.085938 137.792969 C 246.40625 142.566406 253.570312 148.492188 265.066406 150.09375 C 282.394531 157.683594 304.242188 160.296875 326.644531 164.734375 C 348.195312 169.007812 372.011719 174.261719 395.265625 172.347656 C 420.460938 170.28125 451.042969 172.136719 473.269531 169.417969 C 460.140625 155.59375 436.28125 147.402344 414.03125 140.722656 C 414.53125 144.605469 416.203125 149.496094 414.621094 153.609375 C 393.492188 158.648438 363.585938 154.753906 340.722656 150.679688 C 335.875 149.820312 330.777344 147.527344 326.058594 145.992188 C 321.175781 144.410156 315.484375 143.589844 314.917969 137.792969 C 317.246094 134.851562 318.878906 131.207031 319.609375 126.667969 C 290.652344 126.707031 259.882812 128.78125 238.085938 137.792969 Z M 347.171875 119.640625 C 342.703125 118.125 337.535156 114.175781 331.925781 114.367188 C 326.261719 121.597656 323.082031 131.3125 319.023438 140.136719 C 345.75 146.71875 377.453125 153.636719 410.515625 150.09375 C 408.617188 140.863281 407.515625 130.835938 404.0625 123.15625 C 385.109375 125.835938 363.683594 125.234375 347.171875 119.640625 Z M 340.722656 109.683594 C 338.410156 109.90625 335.03125 108.113281 333.683594 111.441406 C 354.421875 115.585938 379.882812 123.925781 403.476562 117.882812 C 390.789062 108.832031 363.023438 107.550781 340.722656 109.683594 Z M 414.03125 134.285156 C 441.535156 141.570312 466.785156 151.105469 483.238281 169.417969 C 482.601562 192.40625 480.257812 213.6875 477.960938 235.015625 C 481.28125 239.550781 488.257812 239.828125 489.691406 245.558594 C 492.367188 256.246094 483.617188 277.058594 483.828125 287.140625 C 479.992188 289.558594 476.160156 291.980469 471.511719 293.578125 C 470.351562 303.355469 470.960938 314.894531 465.644531 320.519531 C 446.367188 328.695312 418.101562 331.039062 391.746094 332.234375 C 383.8125 332.589844 373.816406 331.074219 367.699219 335.160156 C 371.980469 346.195312 363.308594 352 351.28125 350.386719 C 347.710938 361.097656 359.179688 366.066406 356.558594 380.253906 C 355.855469 384.054688 351.464844 387.277344 350.691406 391.382812 C 349.269531 398.976562 352.917969 407.550781 354.800781 414.808594 C 356.71875 422.234375 357.523438 429.59375 360.074219 436.480469 C 368.234375 434.789062 375.273438 437.148438 374.738281 445.851562 C 379.332031 446.535156 385.027344 446.117188 385.296875 451.121094 C 388.773438 450.628906 392.804688 450.140625 397.023438 449.949219 C 405.417969 449.566406 417.609375 452.226562 424.003906 450.535156 C 429.328125 449.125 429.429688 441.539062 436.320312 442.921875 C 443.261719 444.316406 439.460938 453.953125 440.425781 462.246094 C 443.238281 460.558594 442.984375 455.816406 444.535156 452.878906 C 446.847656 448.484375 454.609375 437.769531 461.539062 439.992188 C 467.828125 442.011719 464.515625 466.300781 463.886719 475.71875 C 463.167969 486.382812 462.699219 500.472656 455.085938 501.488281 C 447.785156 502.457031 445.339844 495.6875 440.425781 490.359375 C 440.859375 501.472656 436.492188 515.589844 421.070312 510.859375 C 419.292969 508.640625 418.019531 505.058594 416.964844 501.488281 C 415.964844 498.089844 416.738281 493.503906 411.6875 493.875 C 410.414062 498.066406 411.683594 504.804688 408.167969 506.757812 C 405.597656 506.789062 402.675781 507.167969 402.304688 505 C 395.902344 507.949219 382.65625 505.84375 371.804688 505 C 340.890625 502.601562 309.398438 500.5625 277.96875 499.144531 C 263.945312 498.511719 245.921875 501.988281 235.152344 497.386719 C 233.40625 496.640625 232.277344 493.757812 229.289062 492.117188 C 224.894531 489.703125 222.285156 490.988281 220.492188 488.605469 C 215.742188 482.285156 219.578125 462.210938 216.972656 454.050781 C 213.121094 441.996094 198.308594 438.324219 198.792969 423.59375 C 199.082031 414.746094 205.71875 402.3125 209.9375 393.140625 C 222.710938 365.34375 239.710938 337.648438 252.164062 310.5625 C 240.800781 303.542969 224.394531 294.480469 210.519531 285.382812 C 206.804688 282.945312 199.890625 278.609375 199.378906 274.839844 C 199.128906 273.007812 200.671875 271.957031 201.136719 268.984375 C 201.984375 263.59375 201.792969 259.519531 204.070312 255.515625 C 200.957031 249.578125 193.214844 248.023438 191.753906 241.457031 C 190.320312 235.007812 194.808594 227.105469 197.03125 220.371094 C 199.519531 212.847656 201.375 205.765625 205.828125 202.804688 C 210.691406 202.195312 215.027344 201.058594 219.320312 199.875 C 220.515625 182.824219 225.34375 168.894531 228.703125 153.023438 C 229.796875 147.859375 229.601562 141.675781 231.636719 137.210938 C 235.816406 128.03125 255.175781 126.429688 265.652344 124.324219 C 285.164062 120.410156 300.898438 120.816406 320.195312 120.8125 C 324.132812 116.152344 326.304688 109.734375 330.75 105.585938 C 353.488281 103.054688 399.816406 98.039062 409.34375 116.125 C 412.15625 121.464844 411.207031 127.320312 414.03125 134.285156 " fill-opacity="1" fill-rule="evenodd"/><path fill="#000000" d="M 290.285156 191.675781 C 258.933594 192.957031 260.914062 239.941406 288.523438 243.214844 C 300.453125 244.628906 315.21875 237.066406 317.847656 222.71875 C 321.164062 204.628906 306.730469 190.742188 291.457031 191.675781 C 291.066406 191.699219 290.671875 191.660156 290.285156 191.675781 Z M 289.699219 186.988281 C 312.3125 185.25 331.882812 208.8125 319.023438 232.675781 C 316.433594 237.476562 310.058594 243.628906 303.773438 246.144531 C 279.332031 255.921875 251.371094 230.492188 265.066406 202.804688 C 268.007812 196.855469 276.152344 188.035156 289.699219 186.988281 " fill-opacity="1" fill-rule="evenodd"/><path fill="#000000" d="M 277.96875 222.714844 C 280.257812 229.871094 292.753906 234.484375 300.84375 230.914062 C 315.382812 224.496094 304.828125 197.851562 287.9375 202.804688 C 280.339844 206.097656 275.507812 215.019531 277.96875 222.714844 Z M 273.863281 223.300781 C 273.753906 209.398438 278.1875 199.984375 287.9375 198.121094 C 304.277344 194.996094 318.433594 214.300781 309.050781 229.746094 C 302.007812 241.34375 276.578125 235.671875 273.863281 223.300781 " fill-opacity="1" fill-rule="evenodd"/><path fill="#000000" d="M 411.6875 264.296875 C 449.648438 268.632812 449.425781 209.675781 414.035156 212.761719 C 382.476562 215.511719 382.582031 260.972656 411.6875 264.296875 Z M 412.277344 208.074219 C 434.929688 205.902344 455.160156 229.757812 442.1875 253.753906 C 429.101562 277.957031 384.90625 270.816406 384.707031 239.113281 C 384.625 225.050781 394.292969 209.796875 412.277344 208.074219 " fill-opacity="1" fill-rule="evenodd"/><path fill="#000000" d="M 427.523438 247.3125 C 431.773438 240.804688 429.71875 229.390625 425.179688 226.230469 C 411.910156 216.996094 391.425781 232.902344 402.304688 247.898438 C 408.457031 254.015625 423.039062 254.175781 427.523438 247.3125 Z M 395.855469 245.554688 C 391.90625 227.117188 410.640625 213.828125 424.589844 220.957031 C 432.488281 224.996094 437.273438 237.628906 431.628906 248.484375 C 425.460938 260.347656 400.351562 258.59375 395.855469 245.554688 " fill-opacity="1" fill-rule="evenodd"/><path fill="#000000" d="M 255.679688 220.960938 C 258.859375 225.011719 259.644531 231.449219 261.546875 236.773438 C 257.28125 233.808594 255.632812 228.230469 255.679688 220.960938 " fill-opacity="1" fill-rule="evenodd"/><path fill="#000000" d="M 323.128906 243.214844 C 325.246094 243.050781 324.46875 245.78125 325.476562 246.730469 C 338.605469 252.210938 356.222656 257.960938 374.15625 254.925781 C 376.507812 254.9375 374.140625 250.230469 376.496094 250.242188 C 381.9375 249.484375 385.035156 261.601562 381.777344 266.054688 C 378.402344 265.910156 378.253906 262.546875 377.082031 260.199219 C 356.507812 263.734375 336.6875 258.027344 323.128906 250.828125 C 319.691406 250.519531 321.035156 254.984375 316.675781 253.753906 C 315.125 248.789062 319.296875 244.730469 323.128906 243.214844 " fill-opacity="1" fill-rule="evenodd"/><path fill="#000000" d="M 447.464844 253.757812 C 449.308594 258.484375 442.730469 264.539062 438.667969 267.226562 C 438.996094 262.476562 445.460938 258.789062 447.464844 253.757812 " fill-opacity="1" fill-rule="evenodd"/><path fill="#000000" d="M 333.097656 339.847656 C 323.605469 342.617188 311.023438 338.511719 306.707031 332.234375 C 314.828125 333.132812 325.082031 336.898438 333.097656 339.847656 " fill-opacity="1" fill-rule="evenodd"/><path fill="#000000" d="M 285.59375 370.886719 C 286.765625 370.886719 287.9375 370.886719 289.109375 370.886719 C 289.765625 369.195312 290.164062 367.253906 290.285156 365.027344 C 288.226562 363.730469 286.753906 365.464844 284.417969 364.445312 C 284.40625 366.996094 284.070312 369.867188 285.59375 370.886719 Z M 294.390625 361.515625 C 299.203125 371.683594 286.699219 380.839844 280.902344 373.230469 C 274.777344 365.195312 285.417969 354.167969 294.390625 361.515625 " fill-opacity="1" fill-rule="evenodd"/><path fill="#000000" d="M 266.238281 454.632812 C 261.316406 458.664062 249 461.023438 242.191406 459.320312 C 247.015625 454.738281 258.214844 454.15625 266.238281 454.632812 " fill-opacity="1" fill-rule="evenodd"/><path fill="#000000" d="M 283.832031 459.320312 C 277.773438 464.714844 267.390625 465.125 258.027344 466.933594 C 248.902344 468.699219 239.800781 473.027344 232.222656 471.621094 C 232.8125 466.792969 239.226562 466.941406 242.777344 465.761719 C 254.183594 461.976562 269.351562 458.054688 283.832031 459.320312 " fill-opacity="1" fill-rule="evenodd"/></svg>